<svg xmlns="http://www.w3.org/2000/svg" version="1.0" width="682.667" height="682.667" viewBox="0 0 512 512"><g fill="#613b92"><path d="M.7.7C.3 1 0 116.2 0 256.7V512h511l.2-63.7.3-63.6-9.3-4.4c-17.9-8.3-40.2-14.7-58.4-16.8l-5.8-.6v3.9c0 11.7-6.4 30.9-15.2 45.5-16.5 27.5-39.6 47.5-73.3 63.8-31 15-64.1 21.8-100.8 20.6-20.7-.6-35.9-2.9-54.7-8.1-33.2-9.2-55.7-22.2-79.6-46-27.4-27.4-35.3-42.7-35.6-68.1l-.1-11-1.9 6c-2.6 8-2.1 25.9 1 35.5 1.2 3.5 1.9 6.6 1.7 6.8-.8.8-8.5-16.7-11.4-26.1-5.2-16.3-7.3-27.4-7.8-40.8-.7-15.4 1-24.3 6.7-35.7l3.8-7.7-4.9 5.3C55.6 318 50.2 335.2 51.3 354c.4 5.8.9 11.6 1.3 13 .5 1.7.3 2.2-.4 1.5-1.3-1.3-2.9-11.6-3.7-24-.9-12.9 1.1-41.5 3.5-50.9 5.6-22 22.1-43.8 46-60.9 2.4-1.7 2.4-1.7-1.5-.2-14.5 5.6-33.3 22.4-41.4 36.8-5.7 10.2-10.6 24.6-13 38.3-2.5 14.9-3.5 10.6-2.8-12.4.4-12.4 1.2-20.7 2.7-27.7 5-23.6 14.7-45.5 25.1-56.9 10.4-11.3 28.7-20.7 43.6-22.2l6-.7 2.7 14.4c1.5 7.9 12.5 66.6 24.4 130.4l21.8 116 27.2.3 27.2.2.5-2.2c.3-1.3 6.8-36.7 14.5-78.7s14.3-76.8 14.6-77.2c1-1.7 3.4-.9 3.9 1.3.3 1.3 7 36.9 14.9 79.3l14.2 77 27.5.3 27.5.2 25.8-137.7c14.2-75.8 26-139 26.3-140.6l.5-2.7h-28.1c-21.6 0-28.3.3-28.6 1.2-.2.7-5.2 35.3-11 76.8s-10.8 76.7-11.1 78.3c-.4 1.8-1.2 2.7-2.5 2.7-1 0-1.9-.2-1.9-.5 0-.6-26.8-146.6-28.1-153.3l-1-5.2-25.7.2-25.7.3-14.7 79c-8.1 43.4-14.7 79.1-14.8 79.2 0 .2-.9.3-1.9.3-1.6 0-2.1-.9-2.6-4.3-.4-2.3-5.5-38-11.4-79.2l-10.7-75-28.7-.3c-15.8-.1-28.7.1-28.7.5.1.5.7 3.7 1.5 7.3 2 9.2 2.1 9-2.7 9-8.2 0-23.8 3-31.5 6-18.7 7.2-30.1 19.4-35.8 38l-2.6 8.5.5-7.5c1.7-28.3 29-68.6 55.3-81.9 5.9-3 21.1-6.7 33.1-8.2 9.7-1.1 20.4-.6 31.2 1.6 1.4.3-.3-.8-3.6-2.5-9.2-4.6-18.8-6.3-31.9-5.7-23.2 1.1-41.7 9.2-63.6 27.7l-5.3 4.5 3.4-4.9c5.4-7.5 20.4-23 29.4-30.2 22.3-18 51.2-30.6 81.8-35.8 8.7-1.5 10.3-1.5 15.5-.2 3.2.8 7.8 1.7 10.3 2.1l4.5.6-7.2-3.9c-17.9-9.7-34.6-26-49.8-48.7-6.9-10.3-18-31.6-17.3-33.5.1-.5 3.9 1.7 8.3 5 14.7 11.1 36.8 22.6 59 30.8 35.8 13.2 48.2 17.9 58 22.3l11 4.9-5.5-4.7c-10.4-8.9-21.2-19.8-26.1-26.3-5.5-7.3-10.9-17.6-10.9-21 0-1.9 1-1.3 6.9 4.3 11 10.4 23.5 17.9 57.6 34.6 17.6 8.7 35.5 17.9 39.9 20.6 6.5 3.9 10.2 5.3 21.9 8.2C356 91.6 364 94 366 95c4.8 2.5 8.8 7.2 9.6 11.4.5 2.8 1.8 4.2 7.4 8 7.8 5.2 29.2 22.2 36.1 28.7 4.1 3.9 4.8 5.1 5.7 10.7.9 4.8 1.9 7.2 4.7 10.5 5.8 6.8 9 14.3 9 21.2 0 3.3-.6 7.4-1.3 9.1-1.3 3-1.4 3-7.2 2.6-7.7-.6-12.6 1.8-20.5 9.9l-6 6.1 12.5-.7c24.8-1.3 49.3 2.6 65.8 10.5 8.1 3.8 24.9 14.7 27.2 17.6.7.8 1.5 1.4 1.9 1.4.3 0 .5-54.4.3-121L511 0H256.2C116 0 1 .3.7.7z"/><path d="M314 107.5c0 1.5 9 13.6 13.9 18.9 10.2 10.7 18.5 13.6 33.3 11.6 8.8-1.2 12.8-3 6.7-3-9.2 0-20.2-5-32.1-14.7-4.6-3.7-9.6-7.5-11.3-8.4-4-2.4-10.5-5.1-10.5-4.4zm194.2 239.8c-2.8 3-2.9 9.4-.2 14.7 1.1 2.1 2.3 4.1 2.7 4.3.5.3.8-4.4.8-10.4s-.3-10.9-.6-10.9-1.5 1-2.7 2.3z"/></g></svg>