<svg xmlns="http://www.w3.org/2000/svg" width="37" height="37" viewBox="0 0 0.22 0.22" shape-rendering="geometricPrecision" text-rendering="geometricPrecision" image-rendering="optimizeQuality" fill-rule="evenodd" clip-rule="evenodd"><defs><style>.fil1{fill:#fefefe}</style></defs><g id="Layer_x0020_1"><g id="_2164977045520"><circle cx=".11" cy=".11" r=".11" fill="#29316f"/><path class="fil1" d="M.16.07C.15.07.15.06.14.06.14.05.14.05.13.05.12.04.11.04.1.03.1.04.1.04.11.05.1.04.08.04.07.03c0 .01.01.02.03.03C.09.06.09.05.09.05.07.06.06.07.05.08.06.07.07.06.08.07H.06S.05.09.05.1C.05.08.06.08.07.08c0 0-.01 0-.01.01C.05.09.04.11.05.12.05.11.05.1.06.09.05.1.05.11.05.11v.03c0-.01 0-.02.01-.03L.05.12c0 .01 0 .02.01.03C.05.14.06.14.06.13v.01c0 .01 0 .01.01.02S.09.17.1.17C.06.15.07.09.1.08.1.07.09.07.09.06L.1.07C.1.08.1.08.11.08c.01.01.03 0 .04.01L.16.08V.07zM.13.06s0 .01.01.01c0 0-.01 0-.01-.01z"/><path class="fil1" d="M.14.16C.14.15.14.14.13.13v.01L.12.13l.01.01L.12.13v.02L.11.14v.01-.01H.1V.13L.09.14.1.13H.09v.01-.01H.08L.09.12H.08h.01-.01.01C.08.12.08.12.08.11S.09.09.1.08L.07.11v.04c.01 0 .01.01.01.01l.01.01h.02C.12.17.14.17.15.16.16.15.16.15.16.14.15.14.15.14.14.16z"/><path class="fil1" d="M.09.1C.13.1.18.1.22.12.2.11.19.12.2.13.17.13.18.13.19.15.17.13.15.13.14.15.14.13.12.1.1.1H.09z"/><path class="fil1" d="M.09.1C.13.1.18.11.2.13.17.13.18.13.19.15.17.13.15.13.14.15.14.13.12.1.1.1H.09z"/><path class="fil1" d="M.09.1c.05 0 .08.02.1.05C.17.13.15.13.14.15.14.13.12.1.1.1H.09z"/></g></g></svg>