<svg xmlns="http://www.w3.org/2000/svg" width="20" height="20" viewBox="0 0 0.47 0.48" shape-rendering="geometricPrecision" text-rendering="geometricPrecision" image-rendering="optimizeQuality" fill-rule="evenodd" clip-rule="evenodd"><path d="M.03.03h.42v.42H.03V.03zm0-.03h.42c.01 0 .02.01.02.03v.42C.47.47.46.48.45.48H.03C.01.48 0 .47 0 .45V.03C0 .01.01 0 .03 0zm.12.19c.03 0 .06.02.06.05C.21.27.18.29.15.29.13.29.1.27.1.24.1.21.13.19.15.19zm.17 0c.03 0 .05.02.05.05C.37.27.35.29.32.29.29.29.27.27.27.24.27.21.29.19.32.19z" fill="#003945"/></svg>