<svg xmlns="http://www.w3.org/2000/svg" width="366" height="366" viewBox="0 0 6.63 6.63" shape-rendering="geometricPrecision" text-rendering="geometricPrecision" image-rendering="optimizeQuality" fill-rule="evenodd" clip-rule="evenodd"><defs><style>.fil1,.fil2{fill:#2b2a29}.fil1{fill-rule:nonzero}</style></defs><g id="Layer_x0020_1"><g id="_2164788256816"><g id="_1858643470720"><path d="M3.31.04a3.271 3.271 0 010 6.54C1.51 6.58.04 5.12.04 3.31.04 1.51 1.51.04 3.31.04z" fill="#ebecec"/><path class="fil1" d="M3.31 0c.92 0 1.74.37 2.34.97.6.6.98 1.43.98 2.34 0 .92-.38 1.74-.98 2.34-.6.6-1.42.98-2.34.98-.91 0-1.74-.38-2.34-.98C.37 5.05 0 4.23 0 3.31 0 2.4.37 1.57.97.97 1.57.37 2.4 0 3.31 0zM5.6 1.03C5.01.44 4.2.08 3.31.08c-.89 0-1.7.36-2.28.95-.59.58-.95 1.39-.95 2.28a3.228 3.228 0 003.23 3.23c.89 0 1.7-.36 2.29-.94.58-.59.94-1.4.94-2.29 0-.89-.36-1.7-.94-2.28z"/><path class="fil2" d="M4.68 2.43c-.01-.04 0-.1-.04-.12-.11-.09-.24-.21-.36-.28-.02-.19-.25-.14-.37-.21-.3-.19-.64-.27-.88-.52.02.11.13.26.4.47-.38-.22-.8-.24-1.16-.56.08.25.37.64.65.72-.07-.01-.15-.02-.21-.04-.5.06-.81.31-1.01.59.25-.28.65-.35.89-.18a.783.783 0 00-.52.02c-.24.08-.52.49-.5.74.05-.39.47-.46.71-.41-.16.01-.28.02-.44.13-.21.15-.33.64-.28.94.02-.33.19-.62.53-.73-.32.19-.41.42-.44.53-.02.09-.04.46.01.62-.05-.24 0-.45.18-.6-.06.08-.1.14-.12.3-.02.16.07.5.16.64-.07-.16-.06-.33 0-.43-.02.09-.01.23.03.34.04.11.15.24.27.35.23.23.52.34.8.39h.01a1.721 1.721 0 001.45-.39c.14-.13.25-.29.31-.47.01-.02.01-.03.02-.05-.24-.02-.41.1-.49.47-.12-.23-.22-.56-.44-.83 0 .01-.01.02-.01.03l.1.12-.12-.09c-.02.03-.03.05-.05.07l.14.16-.18-.12c-.02.02-.04.03-.06.05l.13.21-.19-.18c-.02.01-.04.02-.06.02l.04.35-.13-.32h-.06l-.04.28-.04-.28c-.03 0-.07 0-.1-.01l-.1.25.04-.27c-.04 0-.07-.02-.1-.03l-.17.21.11-.24c-.03-.02-.05-.03-.08-.05l-.24.17.18-.22c-.02-.02-.04-.05-.06-.07l-.24.09.2-.14c-.02-.02-.03-.05-.04-.07l-.22.05.19-.1c0-.02-.01-.05-.02-.07h-.2l.19-.05c-.01-.01-.01-.03-.02-.05l-.15-.03.15-.01c-.01-.02-.01-.04-.01-.06l-.13-.02h-.01l.14-.02c-.01-.29.14-.56.45-.78-.01-.02-.01-.03-.02-.04-.11-.15-.2-.38-.17-.56 0 .13.08.29.17.42.04.07.09.14.16.19.36.28.95-.08 1.28.22.07-.07.15-.18.27-.13.06-.1.03-.2-.08-.31zm.86 1.87c.05.05.1.09.14.14 0-.01-.01-.01-.02-.02l.01.01c-.1-.07-.2-.14-.31-.19-.17-.08-.35-.14-.5-.16h-.02c-.27-.03-.49.06-.56.3 0 .01 0 .01-.01.02v.05c-.13-.47-.55-1.18-1.34-1.19v-.02h-.01v-.02l-.01-.01v-.02c.98-.08 2.27.08 3.45.4-.58-.07-.68.1-.51.27-.7-.01-.58.17-.33.42l.02.02zM3.77 2c.19.04.21.23.52.23-.24.06-.35.06-.52-.23zm-1.71.19c.03-.01.05-.02.08-.02.16-.04.34-.02.48.08.02.02.03.05.02.07-.01.03-.04.03-.07.03-.16-.05-.32-.03-.49.02-.12.04-.24.18-.31.29-.01.01-.01.02-.02.02.03-.01.05-.03.08-.04a.78.78 0 01.45-.05c.03.01.05.03.05.06s-.02.05-.05.05c-.16.02-.26.02-.41.13-.12.08-.2.3-.23.45a.71.71 0 01.43-.34c.02-.01.06 0 .06.02.02.03.01.06-.01.07-.12.08-.23.17-.31.28a.54.54 0 00-.1.22c-.01.03-.01.06-.02.09.03-.04.07-.08.11-.12.03-.01.06-.01.08.01.02.02.02.05 0 .07-.01.02-.03.04-.04.06-.04.06-.06.13-.07.21 0 .06.01.16.03.25.01-.02.02-.05.04-.08.01-.02.04-.03.07-.02.02.01.03.04.03.06-.03.09-.01.22.02.31.05.11.17.24.26.33.2.21.47.32.76.38H3l.25.03c.19 0 .37-.02.55-.07.22-.07.43-.18.61-.34.12-.12.23-.26.28-.43-.03 0-.07.01-.1.03-.16.06-.23.25-.26.4-.01.02-.02.04-.05.04-.02 0-.04-.01-.05-.03-.07-.13-.12-.27-.18-.4-.04-.08-.09-.17-.14-.25 0-.01-.01-.01-.01-.01l-.03-.02.07.09c.02.02.02.05 0 .07-.01.02-.04.02-.07.01l-.12-.09.09.15c.01.03.01.06-.01.07-.03.02-.06.02-.07 0l-.16-.15.04.29c0 .03-.02.05-.04.06-.03.01-.06-.01-.07-.03l-.1-.26-.03.21c0 .03-.03.05-.05.05-.03 0-.05-.02-.06-.05l-.03-.24h-.02l-.08.21c-.01.02-.04.04-.07.03a.068.068 0 01-.04-.06l.04-.22c-.01 0-.01 0-.02-.01l-.14.19c-.02.02-.05.03-.07.01-.03-.01-.04-.04-.03-.07l.09-.2h-.01l-.2.15c-.03.01-.06.01-.07-.01-.02-.02-.03-.05-.01-.07l.15-.19s-.01 0-.01-.01l-.2.08c-.03.01-.05 0-.07-.03-.01-.02 0-.05.02-.07l.13-.09-.15.03c-.02.01-.05-.01-.06-.03-.01-.03 0-.06.03-.07l.13-.06h-.14c-.03 0-.05-.03-.05-.05 0-.03.01-.05.04-.06l.06-.02-.05-.01c-.02 0-.04-.02-.04-.05 0-.02.01-.04.03-.05-.02-.01-.03-.02-.03-.04.01-.03.03-.05.05-.05l.09-.01c0-.06.01-.11.02-.16.06-.25.22-.44.42-.6-.05-.07-.09-.15-.12-.23-.05-.11-.07-.24-.05-.36 0-.03.03-.05.06-.05.02.01.05.03.05.06 0 .13.08.29.15.4.04.07.09.13.15.17.04.03.08.05.12.06.14.05.31.04.46.03.22-.01.48-.04.67.09l.03-.03a.28.28 0 01.12-.08c.03-.01.06-.01.09-.01.02-.07-.03-.14-.09-.2 0-.01 0-.01-.01-.02 0-.02-.01-.04-.01-.06 0 0 0-.04-.01-.04-.06-.05-.11-.1-.17-.15-.06-.04-.12-.09-.18-.12a.055.055 0 01-.03-.05c0-.02-.01-.04-.03-.06-.04-.03-.11-.04-.15-.05a.492.492 0 01-.17-.06c-.21-.13-.44-.21-.65-.33.08.08.17.15.24.2.02.02.03.05.01.07-.02.03-.05.03-.07.02-.15-.09-.31-.14-.47-.2-.19-.07-.37-.14-.53-.24.12.21.33.44.53.5.03 0 .04.03.04.06-.01.03-.03.04-.06.04-.07 0-.15-.01-.21-.04-.25.04-.46.12-.65.25zm1.72-.25c.05.02.1.04.14.07.05.04.1.08.15.11.07.04.14.06.22.06.02-.01.05.02.05.04.01.03-.01.06-.04.06-.09.03-.19.05-.28.03-.14-.04-.23-.17-.3-.28-.01-.02-.01-.05 0-.06.02-.02.04-.03.06-.03zm1.96 1.87c-.02-.04-.03-.08-.02-.12.03-.09.11-.13.21-.15-.06-.02-.13-.03-.19-.05-.49-.1-.99-.18-1.49-.23-.35-.03-.72-.05-1.08-.03.28.05.52.2.72.41.16.18.29.4.38.63.1-.21.34-.27.58-.25h.01v.01c.17.02.34.07.49.15 0-.02-.01-.03-.02-.04-.04-.05-.07-.11-.05-.18.02-.07.1-.11.17-.12.05-.01.11-.02.17-.03h.12z"/><path class="fil1" d="M5.25 4.82l.03-.05.3.23-.03.04-.3-.22zm-.36.37l.16-.15.26.27-.03.04-.23-.25-.13.12-.03-.03zm-.45.51a.158.158 0 01-.02-.13c.01-.06.05-.1.1-.13s.1-.03.16-.02c.05.01.09.04.11.09.03.05.04.1.02.16-.02.05-.05.09-.1.12-.03.01-.05.02-.08.03-.03 0-.05 0-.08-.01l.02-.05c.02.01.04.01.06.01.01 0 .04-.01.05-.02.04-.02.07-.05.08-.09.01-.04.01-.08-.01-.12-.02-.04-.05-.06-.09-.08-.04 0-.08 0-.12.02-.03.02-.06.05-.07.08a.17.17 0 000 .1l.13-.07.02.04-.17.09s-.01-.01-.01-.02zm-.67.26c-.01-.06 0-.11.03-.16s.07-.08.12-.09c.06-.02.11-.01.16.01a.2.2 0 01.08.12c.02.06.01.11-.02.16s-.07.08-.12.1c-.06.01-.11.01-.15-.02a.234.234 0 01-.1-.12zm.35-.1a.36.36 0 00-.07-.1c-.03-.01-.07-.02-.11-.01-.05.01-.08.04-.1.08-.02.03-.03.07-.01.11 0 .05.03.08.06.1.04.02.07.02.12.01a.16.16 0 00.09-.07c.02-.04.03-.08.02-.12zm-.71-.04h.05v.39H3.4l-.19-.29v.3h-.05v-.39h.05l.2.31v-.32zm-.91-.07l.05.01-.13.37-.06-.02-.07-.34h-.01l-.02.07-.07.22-.05-.01.13-.37.05.01.08.36.02-.07.08-.23zm-.89.02l.03-.04.14.09.07-.1-.13-.08.02-.04.14.08.07-.11-.15-.09.03-.04.19.11-.22.34-.19-.12zm-.34-.32l.25-.26.03.04-.24.25.08.07-.04.04-.19-.18.04-.04.07.08zm-.55-.61L.69 4.8l.39-.15.03.04-.17.22.26-.08.03.04-.27.31-.03-.04.21-.24v-.01l-.26.09-.02-.04.16-.22-.3.12zm-.08-.8c.05-.02.11-.02.15.01.05.02.08.06.1.11.02.05.01.11-.02.15-.03.05-.07.09-.12.11-.06.02-.11.01-.16-.01A.144.144 0 01.5 4.3a.219.219 0 01.01-.16.22.22 0 01.13-.1zm.09.33c.05-.02.08-.04.1-.08.02-.04.02-.07.01-.11a.127.127 0 00-.07-.09.127.127 0 00-.12 0c-.04.01-.08.04-.09.07-.02.04-.03.08-.02.12.01.04.04.07.07.09.04.01.08.01.12 0zM.44 3.7l.14-.02V3.6c-.01-.02-.01-.03-.02-.05-.02-.01-.03-.02-.06-.01-.01 0-.03.01-.04.02-.01.02-.02.03-.02.05v.09zm.35-.04v.05l-.39.04-.01-.13c0-.03.01-.06.03-.09a.09.09 0 01.08-.04c.03-.01.05 0 .07.02.03.01.04.03.05.06l.15-.12h.01v.05l-.16.12.01.06.16-.02zm-.35-.73l.01-.06.15.16.23-.13h.01l-.01.06-.2.11.06.06.11.01-.01.05-.38-.03v-.05l.2.02v-.01l-.17-.19zm.79-.92l-.03.04-.32-.22.04-.04h.36l-.06-.04-.19-.12.03-.04.32.21-.03.04-.38-.01.06.04.2.14zm.25-.77l.06.17.1-.08-.16-.09zm.11.32l-.04.04-.13-.39.04-.03.36.18-.04.04-.1-.05-.12.11.03.1zm.38-.69l.16.29-.05.03L1.92.9l-.09.05L1.8.91l.24-.14.02.05-.09.05zm.54.11l-.05.01-.12-.35.05-.02.12.36zm.63-.37c0 .06-.01.11-.04.16-.04.04-.08.07-.13.08-.06.02-.11 0-.15-.03-.05-.03-.07-.07-.08-.13-.01-.05 0-.1.04-.15.03-.04.07-.07.13-.08.06-.02.11 0 .15.03a.2.2 0 01.08.12zm-.35.07c0 .05.02.08.06.1.03.03.07.03.11.03a.17.17 0 00.1-.07c.02-.03.03-.07.03-.11-.01-.05-.03-.08-.06-.1C3 .5 2.96.5 2.92.5c-.05.01-.08.03-.1.07-.03.03-.04.07-.03.11zm.69.12L3.43.79 3.47.4l.06.01.16.31.01-.08.02-.22h.05l-.04.39L3.68.8 3.52.48h-.01v.07L3.48.8zm.73-.05L4.05.71l.01-.04.17.04-.02.04zm.48.25c-.01.03-.04.05-.07.05-.03.01-.07.01-.1-.01a.09.09 0 01-.06-.06C4.45.95 4.44.92 4.45.89h.05v.04c0 .01 0 .02.01.03 0 .01.01.02.01.02.01.01.01.02.03.02.02.01.03.01.05.01.02-.01.04-.02.04-.03.01-.02.01-.04.01-.05C4.64.91 4.63.9 4.61.87L4.57.83C4.54.79 4.54.76 4.56.72c.01-.03.03-.04.06-.05.03-.01.06-.01.09 0s.05.03.06.06c.01.02.02.04.01.07h-.05c0-.02 0-.04-.01-.05 0-.01-.01-.03-.03-.03-.02-.01-.03-.01-.05-.01-.02.01-.03.01-.04.03v.04c.01.01.02.03.05.06.03.03.05.06.05.08.01.02 0 .05-.01.08zm.49.03l-.22.28-.04-.03.22-.28-.09-.06.04-.04.2.16-.03.03-.08-.06zm.37.38l-.18.07.08.09.1-.16zm-.33.13l-.04-.04.4-.15.03.04-.21.37-.03-.04.05-.1-.1-.12-.1.04zm.66.34l-.3.17-.03-.04.31-.18-.05-.09.04-.02.13.23-.05.02-.05-.09zm.28.59l-.05.01-.05-.16-.12.04.05.15-.05.02-.04-.16-.12.05.05.16-.05.02-.06-.21.37-.14.07.22z"/><path class="fil2" d="M.77 2.35c.02 0 .03.02.03.04 0 .01-.01.03-.03.03-.02 0-.03-.02-.03-.03 0-.02.01-.04.03-.04z"/></g></g></g></svg>