<svg xmlns="http://www.w3.org/2000/svg" width="5909" height="1783" viewBox="0 0 2841.48 857.66" xmlns:xlink="http://www.w3.org/1999/xlink" shape-rendering="geometricPrecision" text-rendering="geometricPrecision" image-rendering="optimizeQuality" fill-rule="evenodd" clip-rule="evenodd"><defs><linearGradient id="a" gradientUnits="userSpaceOnUse" x1="1060.21" y1="673.7" x2="1701.5" y2="452.35"><stop offset="0" stop-color="#25306c"/><stop offset="1" stop-color="#613b91"/></linearGradient><linearGradient id="c" gradientUnits="userSpaceOnUse" x1="1277.7" y1="557.7" x2="784.62" y2="631.95"><stop offset="0" stop-color="#613b91"/><stop offset="1" stop-color="#25306c"/></linearGradient><linearGradient id="b" gradientUnits="userSpaceOnUse" xlink:href="#a" x1="1175.77" y1="408.29" x2="674.78" y2="482.54"/><linearGradient id="e" gradientUnits="userSpaceOnUse" xlink:href="#a" x1="1454.75" y1="559.52" x2="1180.84" y2="572.01"/><linearGradient id="d" gradientUnits="userSpaceOnUse" xlink:href="#a" x1="1460.05" y1="481.24" x2="1363.12" y2="540.75"/></defs><path d="M0 169.61h146.63v673H0zm281.97 0h146.64V703.5h281.98v139.11H281.97zm2003.06 0h169.19l242.51 436.07V169.61h144.75v673h-154.15l-257.55-439.89v439.89h-144.75zm-122.66 198.33c-17.86-42.61-42.62-79.73-74.25-111.38-31.65-31.64-69.09-56.55-112.33-74.73-43.23-18.16-90.23-27.26-140.99-27.26-50.76 0-97.75 9.1-140.99 27.26-43.24 18.18-80.69 43.09-112.33 74.73-31.65 31.65-56.39 68.77-74.25 111.38-8.94 21.32-15.63 43.5-20.1 66.54 50 7.31 98.65 15.91 144 25.62 2.66-14.37 6.63-28.02 11.92-40.93 10.65-25.99 25.38-48.41 44.18-67.21 18.8-18.8 40.73-33.2 65.8-43.23 25.05-10.02 52.31-15.04 81.77-15.04 28.82 0 55.93 5.02 81.31 15.04 25.37 10.03 47.46 24.43 66.26 43.23 18.8 18.8 33.52 41.22 44.18 67.21 10.65 26.01 15.98 54.98 15.98 86.94s-5.33 60.96-15.98 86.95c-10.66 26.01-25.38 48.4-44.18 67.2-18.8 18.8-40.89 33.22-66.26 43.24-25.38 10.03-52.49 15.04-81.31 15.04-29.46 0-56.72-5.01-81.77-15.04-25.07-10.02-47-24.44-65.8-43.24-16.49-16.48-29.84-35.73-40.06-57.75-158.27-4.01-37.82 45.52 11.19 146.26-43.64-17.93-86.81-39.5-127.4-57.69 14.24 23.6 31.07 45.14 50.52 64.59 31.64 31.65 69.09 56.56 112.33 74.72 43.24 18.17 90.23 27.27 140.99 27.27 50.76 0 97.76-9.1 140.99-27.27 43.24-18.16 80.68-43.07 112.33-74.72 31.63-31.63 56.39-68.77 74.25-111.39 17.86-42.6 26.79-88.66 26.79-138.17 0-49.49-8.93-95.55-26.79-138.17z" fill="#613b91" fill-rule="nonzero"/><path d="M1388.79 265.19c-2.97-9.23-1.43-21.44-8.84-27.62-23.36-19.53-51.79-44.87-78.11-60.1-4.64-40.35-54.85-29.48-81.06-46.24-63.73-40.7-139.05-57.69-190.74-112.79 4.75 25.28 27.4 57.24 87.89 103.39C1034.85 73.96 943.87 68.16 864.59 0c18.93 54.25 79.81 139.18 142.31 155.83-16.65-1.52-33.75-3.91-45.72-8.36-108.82 13.8-177.43 66.92-220.5 128.3 54.61-60.11 142.9-76.94 193.82-40.1-28.05-8.18-62.3-11.62-113.62 5.09-51.33 16.7-111.22 106.73-106.54 161.41 10.51-85.35 99.93-101.34 151.55-90.8-33.06 3.68-58.74 4.49-93.72 29.43-46.15 32.92-72.28 139.6-61.17 203.25 5.09-71.44 40-133.46 114.27-158.74-67.77 42.24-88.21 91.89-93.92 115.59-4.63 19.26-10.92 100.14 1.62 134.45-10.53-52.84-1-97.07 38.43-128.62-12.52 17.27-21.39 29.17-25.49 63.88-4.1 34.71 15.11 108.44 35.23 138.45-15.02-34.5-13.01-71.64.04-92.83-4.47 19.34-3.22 49.65 5.89 73.04 9.11 23.39 33.19 52.45 58.02 76.84 49.41 48.68 112.53 74.08 173.56 84.79-218.11-108.09-186.67-460.12 16.41-547.67-22.85-33.3-45.3-82.53-37.24-123.78.39 28.87 16.78 63.5 35.94 92.89 7.91 15.24 19.22 29.35 35.38 40.59 78.43 59.66 206.93-16.72 277.91 46.41 15.55-14.64 32.61-39.01 58.58-28.37 11.92-20.55 5.4-42.51-16.84-65.78zm-198.3-94.21c40.86 7.93 45.2 50.82 112.47 50.18-50.88 12.69-75.01 12.72-112.47-50.18z" fill="url(#b)"/><path d="M1300.65 754.61c-24.15-50.13-47.78-120.82-94.87-179.72-.72 2.05-1.49 4.11-2.44 6.18l22.47 25.75-26.65-17.96c-2.99 4.94-6.45 9.57-10.25 13.9l30.91 35.47-39.58-26.7c-4.13 3.72-8.53 7.08-13.13 10.08l28.07 47.08-40.93-39.88c-4.56 2.16-9.26 4.04-14.08 5.62l10.14 74.64-29.27-70c-4.56.75-9.19 1.27-13.85 1.55l-8.46 61.18-7.61-61.07a153.54 153.54 0 01-21.57-2.61l-22.82 53.21 8.26-56.73c-6.9-2.03-13.67-4.53-20.25-7.43l-36.6 46.65 22.9-53.49a154.23 154.23 0 01-16.86-10.94l-51.53 37.91 38.85-48.49c-5.18-4.83-9.94-9.99-14.32-15.41l-51.31 19.21L968.81 572c-3.03-4.53-5.82-9.22-8.36-14.03l-47.34 10.63 41.93-21.91c-2.08-4.78-3.92-9.66-5.55-14.63l-42.79-.16 39.67-10.46c-.94-3.59-1.77-7.2-2.49-10.85l-34.32-6.84 32.82-2.12c-.62-4.28-1.1-8.58-1.42-12.91L913 484.25l.31-.04-2.74-.44 29.68-3.41c-2.71-65.19 32.18-123.03 99.11-171.08-1.85-2.53-3.7-5.18-5.54-7.93-1.84.56-3.65 1.17-5.33 1.88-72.14 31.1-122.85 96.77-147.71 169.93-25.42 74.78-26.11 159.38 2.19 233.47 13.92 36.44 35.11 70.11 63.03 97.47 14.64 14.35 31.02 26.9 48.66 37.35.05.02.09.05.14.08 6.97 4.12 19.27 8.64 27.26 9.96 18.47 3.06 37.13 4.9 55.84 5.53 92.31 3.1 189.37-27.69 258.37-90.66 30.72-28.04 54.43-63.16 67.36-102.8 1.19-3.65 2.26-7.33 3.27-11.03-50.34-2.69-88.48 22.3-106.25 102.08z" fill="url(#c)"/><path d="M1003.43 429.55c212.01-17.38 492.36 16.4 748.37 87.07-125.56-14.6-146.78 21.69-110.47 58.89-178.39-2.39-108.64 51.36-37.97 123.61-124.59-92.71-287.27-115.65-305.47 4.12-27.62-101.98-118.25-257-290.04-259.23-.91-2.95-3.5-11.52-4.42-14.46z" fill="url(#a)"/><path d="M1003.88 429.52l.05-.01c216.69-8.86 484.14 41.59 636.91 145.51-178.39-2.39-108.15 51.85-37.48 124.1-126.05-93.44-287.27-115.65-305.47 4.12-27.62-101.98-118.25-257-290.04-259.23-.87-2.8-3.27-10.71-4.28-13.99l.31-.5z" fill="url(#d)"/><path d="M1003.88 429.52c246.37-.98 452.23 119.23 601.43 270.58-123.62-93.69-289.22-116.63-307.42 3.14-27.62-101.98-118.25-257-290.04-259.23-.87-2.8-3.27-10.71-4.28-13.99l.03-.07.28-.43z" fill="url(#e)"/></svg>