<svg xmlns="http://www.w3.org/2000/svg" width="1786" height="1786" viewBox="0 0 101.29 101.29" shape-rendering="geometricPrecision" text-rendering="geometricPrecision" image-rendering="optimizeQuality" fill-rule="evenodd" clip-rule="evenodd"><defs><style>.fil1{fill:#fefefe}</style></defs><g id="Layer_x0020_1"><g id="_2166784901440"><circle cx="50.64" cy="50.64" r="50.58" fill="#29316f" stroke="#2b2a29" stroke-width=".13" stroke-miterlimit="22.926"/><path class="fil1" d="M73.13 33.98c-.22-.71-.11-1.65-.67-2.12-1.8-1.5-3.98-3.45-6-4.62-.36-3.09-4.21-2.26-6.22-3.55-4.89-3.12-10.67-4.43-14.64-8.65.36 1.94 2.1 4.39 6.74 7.93-6.37-3.67-13.36-4.12-19.44-9.35 1.45 4.16 6.13 10.68 10.92 11.96-1.28-.12-2.59-.3-3.51-.64-8.35 1.06-13.62 5.14-16.92 9.85 4.19-4.62 10.97-5.91 14.88-3.08-2.16-.63-4.79-.89-8.73.39-3.93 1.28-8.53 8.19-8.17 12.39.8-6.55 7.67-7.78 11.63-6.97-2.54.28-4.51.34-7.19 2.26-3.55 2.52-5.55 10.71-4.7 15.6.39-5.49 3.07-10.25 8.77-12.19-5.2 3.25-6.77 7.06-7.21 8.88-.35 1.47-.83 7.68.13 10.32-.81-4.06-.08-7.45 2.95-9.88-.96 1.33-1.64 2.24-1.96 4.91-.31 2.66 1.16 8.32 2.7 10.62-1.15-2.64-.99-5.5.01-7.12-.35 1.48-.25 3.81.45 5.6.7 1.8 2.55 4.03 4.45 5.9 3.8 3.74 8.64 5.69 13.32 6.51-16.74-8.3-14.32-35.32 1.26-42.04-1.75-2.55-3.47-6.33-2.85-9.5.03 2.22 1.28 4.88 2.75 7.13.61 1.17 1.48 2.26 2.72 3.12 6.02 4.58 15.88-1.28 21.33 3.56 1.19-1.12 2.5-2.99 4.5-2.18.91-1.57.41-3.26-1.3-5.04zm-15.22-7.24c3.14.61 3.47 3.9 8.64 3.86-3.91.97-5.76.97-8.64-3.86z"/><path class="fil1" d="M66.37 71.54c-1.85-3.85-3.67-9.27-7.28-13.79-.06.15-.12.31-.19.47l1.73 1.98-2.05-1.38c-.23.38-.5.73-.79 1.06l2.37 2.73-3.03-2.05c-.32.28-.66.54-1.01.77l2.15 3.61-3.14-3.06c-.35.17-.71.31-1.08.43l.78 5.73-2.25-5.37c-.35.06-.7.1-1.06.12l-.65 4.7-.58-4.69c-.56-.03-1.11-.1-1.66-.2l-1.75 4.08.63-4.35c-.53-.16-1.05-.35-1.55-.57l-2.81 3.58 1.76-4.11c-.46-.25-.89-.53-1.3-.84l-3.95 2.91 2.98-3.72c-.4-.37-.76-.77-1.1-1.18l-3.94 1.47 3.3-2.35c-.23-.34-.45-.7-.64-1.07l-3.64.81 3.22-1.68c-.16-.37-.3-.74-.42-1.12l-3.29-.01 3.05-.81c-.08-.27-.14-.55-.19-.83l-2.64-.52 2.52-.17c-.05-.33-.08-.66-.11-.99l-2.14-.34h.02l-.21-.04 2.28-.26c-.21-5 2.47-9.44 7.6-13.13-.14-.2-.28-.4-.42-.61-.14.04-.28.09-.41.14-5.54 2.39-9.43 7.43-11.34 13.05-1.95 5.74-2 12.23.17 17.92 1.07 2.79 2.7 5.38 4.84 7.48 1.12 1.1 2.38 2.06 3.73 2.86l.01.01c.54.32 1.48.66 2.1.77 1.41.23 2.85.37 4.28.42 7.09.24 14.54-2.13 19.83-6.96 2.36-2.15 4.18-4.85 5.17-7.89.09-.28.18-.56.25-.85-3.86-.2-6.79 1.72-8.15 7.84z"/><path class="fil1" d="M43.56 46.59c16.27-1.33 37.79 1.26 57.44 6.68-9.64-1.12-11.27 1.67-8.48 4.52-13.7-.18-8.34 3.94-2.92 9.49-9.56-7.12-22.05-8.88-23.44.32-2.12-7.83-9.08-19.73-22.26-19.9l-.34-1.11z"/><path class="fil1" d="M43.59 46.59c16.64-.68 37.16 3.19 48.89 11.17-13.69-.19-8.3 3.97-2.88 9.52-9.67-7.17-22.05-8.88-23.44.32-2.12-7.83-9.08-19.73-22.26-19.9-.07-.22-.26-.82-.33-1.07l.02-.04z"/><path class="fil1" d="M43.59 46.59c18.91-.08 34.71 9.15 46.16 20.77-9.49-7.2-22.2-8.96-23.59.24-2.12-7.83-9.08-19.73-22.26-19.9-.07-.22-.26-.82-.33-1.07v-.01l.02-.03z"/></g></g></svg>